<?xml version="1.0" standalone="no"?>
<!DOCTYPE svg PUBLIC "-//W3C//DTD SVG 20010904//EN"
 "http://www.w3.org/TR/2001/REC-SVG-20010904/DTD/svg10.dtd">
<svg version="1.0" xmlns="http://www.w3.org/2000/svg"
 width="736.000000pt" height="136.000000pt" viewBox="0 0 736.000000 136.000000"
 preserveAspectRatio="xMidYMid meet">
<metadata>
Created by potrace 1.16, written by Peter Selinger 2001-2019
</metadata>
<g transform="translate(0.000000,136.000000) scale(0.100000,-0.100000)"
fill="#000000" stroke="none">
<path d="M436 1181 c-72 -72 -87 -101 -53 -101 7 0 35 23 62 50 27 28 53 50
57 50 4 0 8 -86 8 -191 l0 -192 -130 -252 c-71 -139 -130 -255 -130 -259 0 -3
131 -6 290 -6 l290 0 -140 279 -140 280 0 170 c0 94 4 171 8 171 4 0 30 -22
57 -50 50 -50 68 -59 81 -39 8 14 -144 169 -166 169 -9 0 -51 -36 -94 -79z"/>
<path d="M1640 930 l0 -130 -41 26 c-109 68 -236 27 -299 -98 -56 -113 -35
-263 46 -340 80 -75 202 -77 280 -6 21 19 22 19 52 -11 41 -42 87 -43 95 -3 3
15 1 29 -5 31 -6 2 -19 12 -29 22 -18 18 -19 39 -19 329 l0 310 -40 0 -40 0 0
-130z m-37 -177 l37 -26 0 -133 0 -134 -41 -27 c-76 -50 -171 -27 -216 52 -30
54 -36 97 -22 163 9 45 19 65 50 94 21 20 49 39 61 41 40 8 92 -4 131 -30z"/>
<path d="M3852 748 c3 -292 4 -315 23 -347 31 -52 78 -73 152 -69 75 5 88 14
73 52 -9 24 -13 26 -45 20 -45 -8 -89 10 -104 42 -7 17 -11 122 -11 319 l0
295 -46 0 -45 0 3 -312z"/>
<path d="M2015 845 c-195 -74 -209 -403 -22 -494 47 -23 119 -27 164 -10 15 5
43 24 61 42 17 17 32 25 32 18 0 -21 52 -61 80 -61 22 0 30 6 39 30 8 23 7 30
-3 30 -7 0 -20 8 -29 18 -15 16 -17 47 -17 225 l0 207 -40 0 c-33 0 -40 -3
-40 -20 0 -19 -1 -19 -42 2 -51 27 -130 32 -183 13z m183 -80 l32 -14 0 -145
c0 -144 0 -145 -26 -165 -81 -64 -189 -40 -233 52 -38 78 -21 212 32 256 49
40 122 46 195 16z"/>
<path d="M2680 844 c-19 -8 -50 -29 -67 -46 l-33 -32 0 42 0 42 -40 0 -40 0 0
-255 0 -255 40 0 40 0 0 170 0 171 44 44 c70 70 147 79 190 21 19 -25 21 -44
24 -217 l3 -189 40 0 39 0 0 197 c0 181 -2 200 -21 241 -36 73 -135 103 -219
66z"/>
<path d="M3421 834 c-176 -88 -174 -405 4 -485 50 -23 152 -25 224 -3 52 15
53 16 47 46 -3 18 -8 33 -10 36 -3 2 -34 -3 -69 -12 -110 -28 -190 1 -223 81
-28 65 -33 63 167 63 l182 0 -6 70 c-7 86 -34 150 -78 182 -74 55 -156 62
-238 22z m176 -70 c31 -20 53 -55 60 -98 l6 -36 -142 0 c-135 0 -141 1 -141
20 0 30 24 82 48 103 42 38 120 43 169 11z"/>
<path d="M4855 836 c-60 -28 -87 -56 -114 -116 -43 -99 -39 -195 12 -281 58
-97 177 -135 274 -88 24 12 48 30 54 40 9 18 12 17 43 -16 42 -44 82 -48 97
-8 8 20 7 29 -2 32 -6 2 -20 12 -30 22 -17 17 -19 37 -19 224 l0 205 -35 0
c-28 0 -35 -4 -35 -20 0 -11 -1 -20 -2 -20 -2 0 -25 11 -52 25 -63 32 -125 32
-191 1z m198 -73 l37 -16 0 -138 c0 -136 0 -139 -26 -162 -108 -101 -266 -11
-263 150 2 153 113 226 252 166z"/>
<path d="M5522 839 c-23 -12 -51 -32 -61 -45 -26 -33 -31 -30 -31 16 l0 40
-40 0 -40 0 0 -255 0 -255 45 0 45 0 0 171 c0 155 2 173 20 199 51 71 142 93
189 46 l26 -26 3 -195 3 -195 45 0 44 0 0 174 0 174 40 40 c66 69 136 73 178
12 21 -31 22 -43 22 -216 l0 -184 40 0 40 0 0 198 c0 172 -3 202 -19 239 -47
102 -203 110 -283 14 -15 -17 -29 -31 -32 -31 -3 0 -12 13 -21 30 -19 37 -82
70 -132 70 -21 0 -57 -10 -81 -21z"/>
<path d="M6366 845 c-51 -18 -94 -59 -122 -120 -45 -95 -28 -259 34 -329 50
-56 168 -80 279 -56 70 15 74 19 61 62 l-11 36 -36 -15 c-49 -21 -148 -21
-188 0 -33 18 -66 64 -77 110 l-6 27 180 0 180 0 0 58 c0 78 -15 126 -53 169
-59 67 -153 90 -241 58z m150 -77 c32 -15 64 -68 64 -107 l0 -31 -140 0 -140
0 6 28 c26 112 109 156 210 110z"/>
<path d="M6867 845 c-82 -29 -120 -97 -95 -170 15 -46 51 -73 147 -110 37 -14
78 -35 89 -46 28 -25 28 -70 1 -95 -30 -27 -139 -25 -195 4 l-41 21 -16 -35
c-16 -33 -16 -34 6 -48 37 -25 115 -39 181 -34 124 10 183 65 173 161 -4 44
-10 56 -42 84 -21 18 -69 45 -109 60 -99 38 -116 50 -116 83 0 68 106 89 223
45 10 -4 18 4 26 26 6 18 11 33 11 35 0 2 -23 10 -52 19 -63 18 -140 19 -191
0z"/>
<path d="M3080 595 l0 -255 40 0 40 0 0 255 0 255 -40 0 -40 0 0 -255z"/>
<path d="M4500 546 c0 -296 -1 -304 -22 -331 -19 -25 -26 -27 -74 -23 -52 4
-54 4 -64 -25 -5 -17 -10 -31 -10 -33 0 -11 91 -25 126 -19 54 8 91 37 115 89
17 37 19 71 19 344 l0 302 -45 0 -45 0 0 -304z"/>
</g>
</svg>
